<?xml version="1.0" standalone="no"?>
<!DOCTYPE svg PUBLIC "-//W3C//DTD SVG 20010904//EN"
 "http://www.w3.org/TR/2001/REC-SVG-20010904/DTD/svg10.dtd">
<svg version="1.0" xmlns="http://www.w3.org/2000/svg"
 width="700.000000pt" height="700.000000pt" viewBox="0 0 700.000000 700.000000"
 preserveAspectRatio="xMidYMid meet">
<metadata>
Created by potrace 1.11, written by Peter Selinger 2001-2013
</metadata>
<g transform="translate(0.000000,700.000000) scale(0.100000,-0.100000)"
fill="#000000" stroke="none">
<path d="M1165 6985 c-300 -42 -556 -169 -768 -382 -219 -218 -349 -488 -386
-798 -15 -126 -15 -4484 0 -4610 37 -310 167 -580 386 -798 218 -219 488 -349
798 -386 126 -15 4484 -15 4610 0 310 37 580 167 798 386 219 218 349 488 386
798 15 126 15 4484 0 4610 -37 310 -167 580 -386 798 -218 219 -488 349 -798
386 -139 17 -4520 13 -4640 -4z m1025 -3485 l0 -1880 -460 0 -460 0 0 1880 0
1880 460 0 460 0 0 -1880z m1076 1850 c270 -69 512 -274 617 -523 16 -40 39
-103 51 -142 20 -69 20 -88 23 -1567 l3 -1498 -460 0 -460 0 0 1881 0 1882 75
-7 c41 -4 109 -16 151 -26z m1772 -1 c85 -21 216 -80 290 -130 68 -47 178
-155 228 -225 57 -79 118 -209 146 -309 l23 -80 3 -1492 2 -1493 -460 0 -460
0 0 1881 0 1882 75 -7 c41 -4 110 -16 153 -27z"/>
</g>
</svg>
